<?xml version="1.0" encoding="UTF-8"?>
<svg id="Layer_1" xmlns="http://www.w3.org/2000/svg" viewBox="0 0 784 128">
  <defs>
    <style>
      .cls-1 {
        fill: #fff;
      }
    </style>
  </defs>
  <path class="cls-1" d="M69.04,85.96L103.79,3.74c.15-.32.23-.68.24-1.03,0-.36-.06-.71-.19-1.04-.13-.33-.34-.63-.59-.88-.25-.25-.56-.45-.89-.57-.33-.13-.69-.21-1.04-.21H16.34c-.55-.04-1.11.1-1.57.4-.47.3-.83.73-1.04,1.25L.22,34.23c-.14.32-.22.68-.22,1.03,0,.36.06.71.2,1.04.14.33.34.62.59.87.26.25.56.44.89.57.32.14.67.21,1.02.21h41.16c.69,0,1.36.28,1.85.77.49.49.76,1.16.76,1.85,0,.36-.07.71-.21,1.05L11.95,124.26c-.15.33-.23.68-.23,1.04,0,.36.06.71.2,1.04.14.33.34.63.6.88.26.25.56.44.9.57.32.14.67.21,1.02.21h90.07c.56.04,1.11-.11,1.58-.41.47-.3.83-.74,1.03-1.27l13.63-32.89c.13-.33.19-.68.18-1.03-.01-.35-.09-.7-.24-1.02s-.36-.61-.62-.84c-.26-.24-.57-.42-.9-.53-.32-.14-.67-.21-1.02-.21h-46.64c-.69,0-1.36-.28-1.85-.77-.49-.49-.76-1.16-.76-1.85-.04-.42.02-.84.16-1.23Z"/>
  <path class="cls-1" d="M89.17,78.53h35.8c.53.01,1.06-.14,1.5-.43.44-.29.79-.72.98-1.21l15.67-37.28c.2-.49.54-.92.98-1.21.44-.29.97-.45,1.5-.43h46.17c.55.04,1.11-.1,1.58-.4.47-.3.83-.73,1.04-1.25l13.37-32.57c.15-.33.23-.68.23-1.04,0-.36-.06-.71-.2-1.04-.14-.33-.34-.63-.6-.88-.26-.25-.56-.44-.9-.57-.32-.14-.67-.21-1.02-.21h-85.68c-.55-.04-1.11.1-1.58.4-.47.3-.83.73-1.04,1.25l-30.42,73.2c-.15.32-.23.68-.24,1.03,0,.36.06.71.19,1.04.13.33.34.63.59.88.25.25.56.45.89.57.38.13.78.19,1.18.16Z"/>
  <path class="cls-1" d="M345.43,16h-87.04c-.64,0-1.25.25-1.7.7-.45.45-.7,1.06-.7,1.7v19.9c0,.64.25,1.25.7,1.7.45.45,1.06.7,1.7.7h26.54c.64,0,1.25.25,1.7.7.45.45.7,1.06.7,1.7v66.38c0,.64.25,1.25.7,1.7.45.45,1.06.7,1.7.7h24.33c.64,0,1.25-.25,1.7-.7.45-.45.7-1.06.7-1.7V43.1c0-.64.25-1.25.7-1.7.45-.45,1.06-.7,1.7-.7h26.57c.64,0,1.25-.25,1.7-.7.45-.45.7-1.06.7-1.7v-19.9c0-.64-.25-1.25-.7-1.7-.45-.45-1.06-.7-1.7-.7Z"/>
  <path class="cls-1" d="M594.19,88.96c-1.32,0-1.65-.74-.77-1.7l14.02-15.62c.89-.98,2.28-2.62,3.14-3.62l25.2-30.14c.92-1.23,1.46-2.71,1.54-4.25v-15.22c0-.64-.25-1.25-.7-1.7-.45-.45-1.06-.7-1.7-.7h-72.86c-.64,0-1.25.25-1.7.7-.45.45-.7,1.06-.7,1.7v18.41c0,.64.25,1.25.7,1.7.45.45,1.06.7,1.7.7h16.8l21.24-.26c1.32,0,1.68.74.77,1.7l-14.01,15.62c-.86.98-2.28,2.62-3.14,3.65l-25.25,30.12c-.92,1.23-1.46,2.71-1.54,4.25v15.19c0,.64.25,1.25.7,1.7.45.45,1.06.7,1.7.7h75.79c.64,0,1.25-.25,1.7-.7.45-.45.7-1.06.7-1.7v-18.38c0-.64-.25-1.25-.7-1.7-.45-.45-1.06-.7-1.7-.7h-19.77l-21.14.26Z"/>
  <path class="cls-1" d="M682.2,16h-24.34c-1.33,0-2.4,1.07-2.4,2.4v91.13c0,1.32,1.07,2.4,2.4,2.4h24.34c1.33,0,2.4-1.08,2.4-2.4V18.4c0-1.33-1.07-2.4-2.4-2.4Z"/>
  <path class="cls-1" d="M520.06,112c-.73-.04-1.45-.23-2.1-.57-.65-.33-1.23-.81-1.69-1.38l-35.13-50.14c-.7-1.1-1.25-.94-1.18.38l.72,49.3c0,.64-.25,1.25-.7,1.7-.45.45-1.06.7-1.7.7h-20.69c-.64,0-1.25-.25-1.7-.7-.45-.45-.7-1.06-.7-1.7V18.4c0-.64.25-1.25.7-1.7.45-.45,1.06-.7,1.7-.7h18.62c.74.04,1.46.23,2.12.56.66.33,1.25.79,1.72,1.36l33.31,47.02c.72,1.13,1.22.96,1.18-.36l-.72-46.18c0-.64.25-1.25.7-1.7.45-.45,1.06-.7,1.7-.7h20.69c.64,0,1.25.25,1.7.7.45.45.7,1.06.7,1.7v91.2c0,.64-.25,1.25-.7,1.7-.45.45-1.06.7-1.7.7h-16.85Z"/>
  <path class="cls-1" d="M783.78,109.7l-14.4-27.67-2.98-5.69c-.22-.38-.36-.67-.43-.84-.03-.05-.05-.12-.05-.18s.02-.13.05-.18c0,0,.36-.43.77-.84,0,0,2.16-2.26,4.8-5.64,4.82-5.82,7.46-13.15,7.44-20.71.05-7.67-2.67-15.11-7.67-20.93-5-5.82-11.93-9.64-19.52-10.75-1.06-.12-2.11-.19-3.22-.26h-43.56c-.64,0-1.25.25-1.7.7-.45.45-.7,1.06-.7,1.7v90.98c0,.64.25,1.25.7,1.7.45.45,1.06.7,1.7.7h21.36c.64,0,1.25-.25,1.7-.7.45-.45.7-1.06.7-1.7v-28.8c0-.32.14-.62.36-.84.22-.22.53-.35.84-.36h8.21c.35.02.7.13,1,.32.3.19.55.45.73.76l4.25,8.86,9.77,20.21c.34.62.84,1.15,1.45,1.53.6.38,1.3.6,2.01.63h24.93c.26.07.53.06.79-.02.25-.09.48-.25.64-.47.16-.22.25-.48.26-.74,0-.27-.07-.53-.22-.76ZM742.99,58.5h-14.02c-.25,0-.48-.11-.66-.28-.17-.17-.27-.41-.28-.66v-18.84c0-.25.11-.48.28-.66.17-.17.41-.27.66-.28h14.4c8.02,0,11.16,4.2,11.16,10.15.07,6.77-3.22,10.56-11.54,10.56Z"/>
  <path class="cls-1" d="M436.81,88.02h-44.61c-.26,0-.5-.1-.68-.28-.18-.18-.28-.42-.28-.68v-12.14c0-.25.11-.49.29-.67.18-.18.42-.28.67-.29h24.91c.64,0,1.25-.25,1.7-.7.45-.45.7-1.06.7-1.7v-18.84c0-.64-.25-1.25-.7-1.7-.45-.45-1.06-.7-1.7-.7h-24.91c-.26,0-.5-.1-.68-.28-.18-.18-.28-.42-.28-.68v-8.52c0-.25.11-.49.29-.66.18-.17.42-.27.67-.27h43.61c.64,0,1.25-.25,1.7-.7.45-.45.7-1.06.7-1.7v-19.1c0-.64-.25-1.25-.7-1.7-.45-.45-1.06-.7-1.7-.7h-70.53c-.64,0-1.25.25-1.7.7-.45.45-.7,1.06-.7,1.7v91.08c0,.64.25,1.25.7,1.7.45.45,1.06.7,1.7.7h71.54c.64,0,1.25-.25,1.7-.7.45-.45.7-1.06.7-1.7v-19.06c0-.32-.06-.63-.18-.92-.12-.29-.3-.56-.52-.78-.22-.22-.49-.4-.78-.52-.29-.12-.6-.18-.92-.18Z"/>
</svg>