<?xml version="1.0" encoding="UTF-8"?>
<svg id="Layer_1" xmlns="http://www.w3.org/2000/svg" viewBox="0 0 208 128">
  <defs>
    <style>
      .cls-1 {
        fill: #fff;
      }
    </style>
  </defs>
  <path class="cls-1" d="M69.04,85.96L103.8,3.74c.15-.32.23-.68.24-1.03,0-.36-.06-.71-.19-1.04-.14-.33-.34-.63-.59-.88-.25-.25-.56-.45-.89-.57-.33-.13-.69-.21-1.04-.21H16.34c-.55-.04-1.11.1-1.57.4-.47.3-.83.73-1.04,1.25L.22,34.23c-.14.32-.22.68-.22,1.03,0,.36.06.71.2,1.04.14.33.34.62.59.87.26.25.56.44.89.57.32.14.67.21,1.02.21h41.16c.69,0,1.36.28,1.85.77.49.49.76,1.16.76,1.85,0,.36-.07.71-.21,1.05L11.95,124.26c-.15.33-.23.68-.23,1.04,0,.36.06.71.2,1.04.14.33.34.63.6.88.26.25.56.44.9.57.32.14.67.21,1.02.21h90.07c.56.04,1.11-.11,1.58-.41.47-.3.83-.74,1.03-1.27l13.63-32.89c.13-.33.19-.68.18-1.03-.01-.35-.09-.7-.24-1.02s-.36-.61-.62-.84c-.26-.24-.57-.42-.9-.53-.32-.14-.67-.21-1.02-.21h-46.64c-.69,0-1.36-.28-1.85-.77-.49-.49-.76-1.16-.76-1.85-.04-.42.02-.84.16-1.23Z"/>
  <path class="cls-1" d="M89.17,78.53h35.8c.53.01,1.06-.14,1.5-.43.44-.29.79-.72.98-1.21l15.67-37.28c.2-.49.54-.92.98-1.21.44-.29.97-.45,1.5-.43h46.17c.55.04,1.1-.1,1.57-.4.47-.3.83-.73,1.04-1.25l13.37-32.57c.15-.33.23-.68.23-1.04,0-.36-.06-.71-.2-1.04-.14-.33-.34-.63-.6-.88-.26-.25-.56-.44-.9-.57-.32-.14-.67-.21-1.02-.21h-85.69c-.55-.04-1.11.1-1.57.4-.47.3-.83.73-1.04,1.25l-30.43,73.2c-.15.32-.23.68-.24,1.03,0,.36.06.71.19,1.04.13.33.34.63.59.88.25.25.56.45.89.57.38.13.78.19,1.18.16Z"/>
</svg>